<mxfile host="app.diagrams.net" modified="2022-10-12T06:11:23.181Z" agent="5.0 (Windows NT 10.0; Win64; x64) AppleWebKit/537.36 (KHTML, like Gecko) Chrome/104.0.0.0 Safari/537.36" etag="-m53VqQVR1HkYHKEZhGt" version="20.4.0" type="github">
  <diagram name="Page-1" id="52a04d89-c75d-2922-d76d-85b35f80e030">
    <mxGraphModel dx="1422" dy="786" grid="1" gridSize="10" guides="1" tooltips="1" connect="1" arrows="1" fold="1" page="1" pageScale="1" pageWidth="1100" pageHeight="850" background="none" math="0" shadow="0">
      <root>
        <mxCell id="0" />
        <mxCell id="1" parent="0" />
        <mxCell id="m4ov1syOIJy_3yBUvIaF-2" value="main 1.0.0" style="ellipse;whiteSpace=wrap;html=1;strokeWidth=2;" vertex="1" parent="1">
          <mxGeometry x="20" y="350" width="70" height="70" as="geometry" />
        </mxCell>
        <mxCell id="m4ov1syOIJy_3yBUvIaF-3" value="" style="endArrow=classic;html=1;rounded=0;exitX=1;exitY=0.5;exitDx=0;exitDy=0;" edge="1" parent="1" source="m4ov1syOIJy_3yBUvIaF-2">
          <mxGeometry width="50" height="50" relative="1" as="geometry">
            <mxPoint x="520" y="350" as="sourcePoint" />
            <mxPoint x="730" y="385" as="targetPoint" />
          </mxGeometry>
        </mxCell>
        <mxCell id="m4ov1syOIJy_3yBUvIaF-4" value="" style="curved=1;endArrow=classic;html=1;rounded=0;exitX=1;exitY=0.5;exitDx=0;exitDy=0;entryX=0;entryY=0.5;entryDx=0;entryDy=0;" edge="1" parent="1" source="m4ov1syOIJy_3yBUvIaF-2" target="m4ov1syOIJy_3yBUvIaF-14">
          <mxGeometry width="50" height="50" relative="1" as="geometry">
            <mxPoint x="520" y="330" as="sourcePoint" />
            <mxPoint x="200" y="280" as="targetPoint" />
            <Array as="points">
              <mxPoint x="190" y="385" />
              <mxPoint x="180" y="270" />
            </Array>
          </mxGeometry>
        </mxCell>
        <mxCell id="m4ov1syOIJy_3yBUvIaF-12" value="main 1.1.0" style="ellipse;whiteSpace=wrap;html=1;strokeWidth=2;" vertex="1" parent="1">
          <mxGeometry x="730" y="350" width="70" height="70" as="geometry" />
        </mxCell>
        <mxCell id="m4ov1syOIJy_3yBUvIaF-13" value="" style="curved=1;endArrow=classic;html=1;rounded=0;entryX=0;entryY=0.5;entryDx=0;entryDy=0;exitX=1;exitY=0.5;exitDx=0;exitDy=0;" edge="1" parent="1" source="m4ov1syOIJy_3yBUvIaF-14" target="m4ov1syOIJy_3yBUvIaF-12">
          <mxGeometry width="50" height="50" relative="1" as="geometry">
            <mxPoint x="620" y="280" as="sourcePoint" />
            <mxPoint x="560" y="360" as="targetPoint" />
            <Array as="points">
              <mxPoint x="600" y="275" />
              <mxPoint x="630" y="280" />
              <mxPoint x="630" y="390" />
            </Array>
          </mxGeometry>
        </mxCell>
        <mxCell id="m4ov1syOIJy_3yBUvIaF-14" value="dev 1.1.0" style="ellipse;whiteSpace=wrap;html=1;strokeWidth=2;" vertex="1" parent="1">
          <mxGeometry x="295" y="240" width="70" height="70" as="geometry" />
        </mxCell>
        <mxCell id="m4ov1syOIJy_3yBUvIaF-16" value="" style="curved=1;endArrow=classic;html=1;rounded=0;exitX=1;exitY=0.5;exitDx=0;exitDy=0;" edge="1" parent="1" source="m4ov1syOIJy_3yBUvIaF-2">
          <mxGeometry width="50" height="50" relative="1" as="geometry">
            <mxPoint x="510" y="510" as="sourcePoint" />
            <mxPoint x="200" y="485.4545454545455" as="targetPoint" />
            <Array as="points">
              <mxPoint x="150" y="380" />
              <mxPoint x="150" y="490" />
            </Array>
          </mxGeometry>
        </mxCell>
        <mxCell id="m4ov1syOIJy_3yBUvIaF-20" value="fix 1.0.1" style="ellipse;whiteSpace=wrap;html=1;strokeWidth=2;" vertex="1" parent="1">
          <mxGeometry x="200" y="450" width="70" height="70" as="geometry" />
        </mxCell>
        <mxCell id="m4ov1syOIJy_3yBUvIaF-21" value="修复bug，非影响性修订" style="text;html=1;strokeColor=none;fillColor=none;align=center;verticalAlign=middle;whiteSpace=wrap;rounded=0;strokeWidth=2;" vertex="1" parent="1">
          <mxGeometry x="160" y="520" width="135" height="30" as="geometry" />
        </mxCell>
        <mxCell id="m4ov1syOIJy_3yBUvIaF-22" value="" style="curved=1;endArrow=classic;html=1;rounded=0;exitX=1;exitY=0.5;exitDx=0;exitDy=0;entryX=0;entryY=0.5;entryDx=0;entryDy=0;" edge="1" parent="1" target="m4ov1syOIJy_3yBUvIaF-23">
          <mxGeometry width="50" height="50" relative="1" as="geometry">
            <mxPoint x="270" y="485" as="sourcePoint" />
            <mxPoint x="350" y="380" as="targetPoint" />
            <Array as="points">
              <mxPoint x="320" y="490" />
              <mxPoint x="320" y="385" />
            </Array>
          </mxGeometry>
        </mxCell>
        <mxCell id="m4ov1syOIJy_3yBUvIaF-23" value="main 1.0.1" style="ellipse;whiteSpace=wrap;html=1;strokeWidth=2;" vertex="1" parent="1">
          <mxGeometry x="360" y="350" width="70" height="70" as="geometry" />
        </mxCell>
        <mxCell id="m4ov1syOIJy_3yBUvIaF-24" value="功能性改动，影响性修订" style="text;html=1;strokeColor=none;fillColor=none;align=center;verticalAlign=middle;whiteSpace=wrap;rounded=0;strokeWidth=2;" vertex="1" parent="1">
          <mxGeometry x="260" y="210" width="160" height="30" as="geometry" />
        </mxCell>
        <mxCell id="m4ov1syOIJy_3yBUvIaF-26" value="" style="endArrow=classic;html=1;rounded=0;" edge="1" parent="1">
          <mxGeometry width="50" height="50" relative="1" as="geometry">
            <mxPoint x="800" y="384.5" as="sourcePoint" />
            <mxPoint x="890" y="384.5" as="targetPoint" />
          </mxGeometry>
        </mxCell>
        <mxCell id="m4ov1syOIJy_3yBUvIaF-27" value="稳定分支，每个版本都是可运行状态" style="text;html=1;strokeColor=none;fillColor=none;align=center;verticalAlign=middle;whiteSpace=wrap;rounded=0;strokeWidth=2;" vertex="1" parent="1">
          <mxGeometry x="670" y="420" width="200" height="30" as="geometry" />
        </mxCell>
        <mxCell id="m4ov1syOIJy_3yBUvIaF-28" value="" style="curved=1;endArrow=classic;html=1;rounded=0;exitX=1;exitY=0.5;exitDx=0;exitDy=0;entryX=0;entryY=0.5;entryDx=0;entryDy=0;" edge="1" parent="1" source="m4ov1syOIJy_3yBUvIaF-2" target="m4ov1syOIJy_3yBUvIaF-29">
          <mxGeometry width="50" height="50" relative="1" as="geometry">
            <mxPoint x="430" y="390" as="sourcePoint" />
            <mxPoint x="550" y="550" as="targetPoint" />
            <Array as="points">
              <mxPoint x="130" y="580" />
            </Array>
          </mxGeometry>
        </mxCell>
        <mxCell id="m4ov1syOIJy_3yBUvIaF-29" value="dep 1.0.0" style="ellipse;whiteSpace=wrap;html=1;strokeWidth=2;" vertex="1" parent="1">
          <mxGeometry x="190" y="640" width="70" height="70" as="geometry" />
        </mxCell>
        <mxCell id="m4ov1syOIJy_3yBUvIaF-34" value="切出部署代码" style="text;html=1;strokeColor=none;fillColor=none;align=center;verticalAlign=middle;whiteSpace=wrap;rounded=0;strokeWidth=2;" vertex="1" parent="1">
          <mxGeometry x="60" y="560" width="90" height="30" as="geometry" />
        </mxCell>
        <mxCell id="m4ov1syOIJy_3yBUvIaF-37" value="dep 1.0.0+" style="ellipse;whiteSpace=wrap;html=1;strokeWidth=2;" vertex="1" parent="1">
          <mxGeometry x="380" y="640" width="70" height="70" as="geometry" />
        </mxCell>
        <mxCell id="m4ov1syOIJy_3yBUvIaF-38" value="" style="endArrow=classic;html=1;rounded=0;exitX=1;exitY=0.5;exitDx=0;exitDy=0;entryX=0;entryY=0.5;entryDx=0;entryDy=0;" edge="1" parent="1" source="m4ov1syOIJy_3yBUvIaF-29" target="m4ov1syOIJy_3yBUvIaF-37">
          <mxGeometry width="50" height="50" relative="1" as="geometry">
            <mxPoint x="510" y="680" as="sourcePoint" />
            <mxPoint x="560" y="630" as="targetPoint" />
          </mxGeometry>
        </mxCell>
        <mxCell id="m4ov1syOIJy_3yBUvIaF-39" value="改动" style="text;html=1;strokeColor=none;fillColor=none;align=center;verticalAlign=middle;whiteSpace=wrap;rounded=0;strokeWidth=2;" vertex="1" parent="1">
          <mxGeometry x="285" y="680" width="60" height="30" as="geometry" />
        </mxCell>
        <mxCell id="m4ov1syOIJy_3yBUvIaF-40" value="dep 1.0.1" style="ellipse;whiteSpace=wrap;html=1;strokeWidth=2;" vertex="1" parent="1">
          <mxGeometry x="550" y="640" width="70" height="70" as="geometry" />
        </mxCell>
        <mxCell id="m4ov1syOIJy_3yBUvIaF-41" value="" style="curved=1;endArrow=classic;html=1;rounded=0;exitX=1;exitY=0.5;exitDx=0;exitDy=0;entryX=0;entryY=0.5;entryDx=0;entryDy=0;" edge="1" parent="1" target="m4ov1syOIJy_3yBUvIaF-40">
          <mxGeometry width="50" height="50" relative="1" as="geometry">
            <mxPoint x="430" y="380" as="sourcePoint" />
            <mxPoint x="530" y="670" as="targetPoint" />
            <Array as="points">
              <mxPoint x="470" y="575" />
            </Array>
          </mxGeometry>
        </mxCell>
        <mxCell id="m4ov1syOIJy_3yBUvIaF-42" value="" style="endArrow=classic;html=1;rounded=0;exitX=1;exitY=0.5;exitDx=0;exitDy=0;entryX=0;entryY=0.5;entryDx=0;entryDy=0;" edge="1" parent="1" source="m4ov1syOIJy_3yBUvIaF-37" target="m4ov1syOIJy_3yBUvIaF-40">
          <mxGeometry width="50" height="50" relative="1" as="geometry">
            <mxPoint x="510" y="580" as="sourcePoint" />
            <mxPoint x="560" y="530" as="targetPoint" />
          </mxGeometry>
        </mxCell>
        <mxCell id="m4ov1syOIJy_3yBUvIaF-43" value="合并修复内容" style="text;html=1;strokeColor=none;fillColor=none;align=center;verticalAlign=middle;whiteSpace=wrap;rounded=0;strokeWidth=2;" vertex="1" parent="1">
          <mxGeometry x="480" y="540" width="100" height="30" as="geometry" />
        </mxCell>
        <mxCell id="m4ov1syOIJy_3yBUvIaF-44" value="" style="endArrow=classic;html=1;rounded=0;exitX=1;exitY=0.5;exitDx=0;exitDy=0;" edge="1" parent="1" source="m4ov1syOIJy_3yBUvIaF-40">
          <mxGeometry width="50" height="50" relative="1" as="geometry">
            <mxPoint x="510" y="570" as="sourcePoint" />
            <mxPoint x="750" y="675" as="targetPoint" />
          </mxGeometry>
        </mxCell>
        <mxCell id="m4ov1syOIJy_3yBUvIaF-48" value="test 1.1.0" style="ellipse;whiteSpace=wrap;html=1;strokeWidth=2;" vertex="1" parent="1">
          <mxGeometry x="470" y="240" width="70" height="70" as="geometry" />
        </mxCell>
        <mxCell id="m4ov1syOIJy_3yBUvIaF-49" value="主分支只能从测试分支合并代码" style="text;html=1;strokeColor=none;fillColor=none;align=center;verticalAlign=middle;whiteSpace=wrap;rounded=0;strokeWidth=2;" vertex="1" parent="1">
          <mxGeometry x="630" y="270" width="100" height="30" as="geometry" />
        </mxCell>
      </root>
    </mxGraphModel>
  </diagram>
</mxfile>
